PathFileType	4	(X/Y/Z)	C:/Users/beibeiliu/ov580/test_trc/User1\sequence.15_training_dense_right.trc
DataRate	CameraRate	NumFrames	NumMarkers	Units	OrigDataRate	OrigDataStartFrame	OrigNumFrames
120	120	8	19	mm	120	103	273
Frame#	Time	ThumbCMC			ThumbMCP			ThumbIP			ThumbTip			IndexMCP			IndexPIP			IndexTip			MiddleMCP			MiddlePIP			MiddleTip			RingMCP			RingPIP			RingTip			PinkyMCP			PinkyPIP			PinkyTip			BackHand1			BackHand2			BackHand3	
		X0	Y0	Z0	X1	Y1	Z1	X2	Y2	Z2	X3	Y3	Z3	X4	Y4	Z4	X5	Y5	Z5	X6	Y6	Z6	X7	Y7	Z7	X8	Y8	Z8	X9	Y9	Z9	X10	Y10	Z10	X11	Y11	Z11	X12	Y12	Z12	X13	Y13	Z13	X14	Y14	Z14	X15	Y15	Z15	X16	Y16	Z16	X17	Y17	Z17	X18	Y18	Z18	
102	0.85	111.856	75.0465	59.1318	95.2156	55.8482	37.9242	76.3839	49.2642	16.313	67.2478	39.6876	3.24387	119.758	111.526	-14.7581	119.887	117.415	-39.5565	122.812	122.682	-66.3749	141.761	87.8307	-30.1601	134.819	52.1284	-35.1073	134.286	45.5219	6.0863	163.961	79.1821	-25.4917	153.334	47.0063	-30.7325	147.988	38.1077	2.15373	188.845	88.12	-9.67048	193.62	91.3097	-27.3232	199.239	103.142	-45.5358	170.713	101.774	31.1849	178.203	96.9633	68.9	142.763	104.868	52.8429	
103	0.858333	109.976	77.2709	58.7321	99.8446	58.9262	32.4232	86.3523	53.0364	9.57785	72.9348	44.21	-11.5336	124.371	121.361	-16.1216	120.428	129.677	-40.8567	122.196	136.763	-65.3932	146.424	96.9081	-29.6029	134.386	63.9687	-37.1904	130.938	52.9055	-0.999424	164.222	88.4653	-28.1367	156.819	57.9454	-33.4268	151.407	46.9319	-1.70582	193.26	96.0489	-8.98086	195.052	101.535	-24.398	200.725	115.224	-42.16	174.895	106.505	33.8207	177.341	100.353	69.4601	139.487	109.617	55.4024	
104	0.866667	115.693	80.077	56.3651	99.5347	62.7647	26.4562	92.4251	58.6888	1.09217	85.0195	49.9368	-18.4232	121.423	130.97	-10.5212	120.946	141.662	-36.8335	128.015	148.577	-60.5599	142.657	108.431	-30.6142	138.152	75.2784	-39.5092	135.231	60.4462	-3.42751	167.683	98.5812	-27.2426	154.53	67.5125	-34.6674	154.161	56.2544	-2.13431	194.137	103.577	-4.45852	199.404	110.208	-23.0868	203.585	127.757	-43.0594	175.466	110.954	39.3725	179.573	100.408	71.4506	145	110.788	56.7938	
105	0.875	114.833	85.0362	53.7523	102.918	67.4634	21.502	95.945	64.2809	-7.01033	94.5507	58.8166	-29.9201	123.504	140.6	-9.54744	122.751	150.201	-31.8592	127.399	159.548	-54.0609	145.368	117.579	-27.7013	138.892	88.055	-40.7746	134.474	68.5951	-4.98241	165.385	107.855	-27.633	153.889	77.8329	-34.7748	150.629	64.3905	-6.50317	194.928	111.209	-3.81408	199.592	120.734	-24.0153	205.857	134.949	-38.377	175.6	115.913	38.0989	177.605	104.399	71.8465	141.998	116.086	56.4462	
106	0.883333	112.266	87.2526	53.4878	104.855	72.3424	18.5677	103.866	72.2367	-12.1656	107.337	66.4967	-33.3237	127.99	146.659	-6.91134	127.947	157.183	-27.0244	130.934	170.543	-51.547	148.768	124.449	-26.5816	139.788	93.5322	-39.7998	135.535	73.8817	-3.15167	167.012	116.321	-25.2288	156.911	87.7519	-35.8293	150.175	72.0774	-8.03002	197.409	115.066	-0.962946	204.85	125.573	-21.8972	211.211	139.434	-33.6551	180.744	120.76	40.2041	182.832	105.471	73.214	144.398	121	58.0207	
107	0.891667	114.97	89.0753	53.1834	112.696	78.1195	15.047	112.725	79.1254	-15.7602	119.021	74.5272	-39.8591	128.072	152.571	-2.53206	125.994	166.189	-25.8519	131.968	178.104	-51.2469	147.783	131.267	-25.8035	138.765	101.616	-39.0782	139.526	78.5265	-8.49438	168.668	120.981	-22.3811	160.267	89.1925	-34.6452	151.872	76.4594	-7.39273	199.473	120.136	-2.38789	204.062	128.606	-15.8666	210.035	147.295	-31.9296	181.724	121.266	41.5962	180.753	108.691	72.0688	146.054	121.733	61.4754	
108	0.9	119.981	91.3219	53.6312	112.359	80.9221	11.8629	114.265	79.5627	-17.3981	131.592	79.0265	-39.3336	131.548	154.062	-0.501267	130.74	168.956	-26.435	133.244	180.151	-49.6302	149.467	135.689	-18.8448	143.406	105.28	-39.3791	137.36	83.4124	-7.00256	170.177	122.192	-24.1948	161.013	92.3909	-35.1026	155.24	76.3228	-4.46871	200.16	122.582	-3.98192	203.527	130.129	-15.9998	213.777	148.201	-29.9772	184.04	120.052	42.5821	181.325	108.684	73.2207	149.035	124.388	63.0652	
109	0.908333	118.729	93.4817	54.4775	113.728	81.9144	15.7134	119.197	82.733	-17.876	138.898	80.767	-37.1412	131.176	154.635	2.00459	130.879	166.615	-22.1732	134.667	180.299	-48.8528	151.787	134.79	-23.2381	136.872	108.303	-36.6002	138.761	85.1408	-5.05093	172.738	121.558	-23.1767	160.159	95.3041	-35.9823	153.406	77.8541	-6.64205	197.66	121.787	-2.58525	204.569	130.014	-19.2524	210.19	147.141	-32.0901	184.052	119.627	42.2915	187.393	106.469	72.6275	152.296	121.237	63.4368	
